<svg xmlns="http://www.w3.org/2000/svg" xmlns:xlink="http://www.w3.org/1999/xlink" data-name="Layer 1" viewBox="0 0 1920 1080"><defs><linearGradient id="a" x1="11290.79" x2="11224.18" y1="7693.43" y2="7948.81" gradientTransform="rotate(-104.62 3561.289 8097.512)" gradientUnits="userSpaceOnUse"><stop offset="0" stop-color="#b6f5e9"/><stop offset="1" stop-color="#69a8c9"/></linearGradient><linearGradient id="b" x1="899.89" x2="1396.04" y1="808.87" y2="808.87" xlink:href="#a"/><linearGradient id="c" x1="6023.31" x2="6190.14" y1="1130" y2="1130" gradientTransform="translate(-5581.62 -479.67)" xlink:href="#a"/><linearGradient id="d" x1="907.64" x2="1073.72" y1="689.4" y2="689.4" gradientUnits="userSpaceOnUse"><stop offset="0" stop-color="#f5b12a"/><stop offset="1" stop-color="#e47826"/></linearGradient><linearGradient id="e" x1="671.52" x2="1279.67" y1="367.08" y2="367.08" gradientUnits="userSpaceOnUse"><stop offset="0" stop-color="#f5e72a"/><stop offset="1" stop-color="#6fe426"/></linearGradient><linearGradient id="f" x1="1282.78" x2="1448.26" y1="285.49" y2="285.49" xlink:href="#a"/><linearGradient id="g" x1="375.87" x2="674.34" y1="884.32" y2="884.32" xlink:href="#a"/></defs><ellipse cx="949.96" cy="945.17" fill="#ddf4f4" rx="112.77" ry="20.59"/><path fill="#ddf4f4" d="M558.35,909.61h800.52c51.27-19.44,104.45-35.48,147.57-68.73,14-10.83,27.16-23.9,33.45-40.48,10.35-27.28.23-58-13.8-83.64a286,286,0,0,0-55.16-71.12c-36.39-34.1-81.86-58.85-112.19-98.44-45.66-59.62-46.71-149.43-2.46-210.1,28.26-38.75,75-73.21,70.1-120.92-3-29-26.48-53.06-53.86-63s-57.82-7.83-86.16-1c-128.11,30.78-228.84,151.25-360.59,152.14-33.2.23-65.86-7.44-98.75-11.94s-67.47-5.62-98.16,7-56.46,42-56,75.21c1,62,85.81,101.56,79,163.15-3.11,27.91-25.5,50.22-50.26,63.48s-52.53,19.79-78.32,30.9c-67.91,29.26-122.43,99.45-113.54,172.85C514.42,843.56,535.32,878.23,558.35,909.61Z"/><polygon fill="url(#a)" points="1219.49 852.3 1483.41 781.58 1290.21 588.37 1219.49 852.3"/><path fill="#61bec5" d="M908.39,866.56a52.42,52.42,0,0,1-22.48,43.05h100a36.45,36.45,0,0,1-13-36.77A37.49,37.49,0,0,0,956.25,893a70,70,0,0,0-47.93-29C908.36,864.84,908.39,865.7,908.39,866.56Z"/><path fill="url(#b)" d="M1349.43,860.83a46.41,46.41,0,0,0-27.56,9,46.59,46.59,0,0,0-18.17-28.26,46.63,46.63,0,0,0-43.84-62.43h-.4a46.6,46.6,0,0,0-80.73-37.28A87.18,87.18,0,0,0,1020.21,792c0,1.87.08,3.73.19,5.58A46.61,46.61,0,0,0,958.51,863a46.64,46.64,0,0,0-58,29.18l-.6.07V912.9h495.82a46.54,46.54,0,0,0-46.28-52.07Z"/><path fill="#75acc9" d="M1349.43,860.83a46.41,46.41,0,0,0-27.56,9,46.59,46.59,0,0,0-18.17-28.26,46.61,46.61,0,0,0-12.16-50,51.28,51.28,0,0,1-94.73,38.45A45.45,45.45,0,0,1,1139.17,868,45.5,45.5,0,0,1,1064,884.55a45.49,45.49,0,0,1-53.64.48,45.52,45.52,0,0,1-16.68,27.87h402a46.54,46.54,0,0,0-46.28-52.07Z"/><rect width="166.84" height="166.84" x="441.69" y="566.92" fill="url(#c)" transform="rotate(-45 525.098 650.337)"/><path fill="url(#d)" d="M1073.58,906.6c5.85,40.19-171.66,39.59-165.8,0s51.94-346.5,58-440.85a25.07,25.07,0,0,1,25-23.47h0a25.09,25.09,0,0,1,25,23.19C1023,559.41,1067.74,866.41,1073.58,906.6Z"/><path fill="#d97224" d="M1073.58,906.6c-5.84-40.19-50.62-347.19-57.74-441.13a25.09,25.09,0,0,0-25-23.19h0a24.92,24.92,0,0,0-14.73,4.79,25,25,0,0,1,10.28,18.4c7.12,93.94,51.9,400.94,57.74,441.13,2.58,17.71-30.45,27.5-67.7,29.52C1023.46,938.67,1076.83,928.93,1073.58,906.6Z"/><path fill="url(#e)" d="M1155.85,272.94A177.67,177.67,0,0,0,818.56,216,177.65,177.65,0,1,0,951.32,536.34a177.66,177.66,0,1,0,204.53-263.4Z"/><path fill="#63cc22" d="M1122.1 252.65a176.51 176.51 0 0133 14.34 177.84 177.84 0 00-101.93-136.65A177.42 177.42 0 011122.1 252.65zM1176 280.73A177.66 177.66 0 01994.34 583.54 177.65 177.65 0 101176 280.73zM917.57 516.05a177.82 177.82 0 01-176.11 16.21A177.7 177.7 0 00939.3 544.1 177.74 177.74 0 01917.57 516.05z"/><circle cx="697.95" cy="479" r="26.43" fill="#e46150"/><path fill="#63cc22" d="M709.31,444.13h5.52a0,0,0,0,1,0,0v5.52A11.36,11.36,0,0,1,703.46,461h-5.52a0,0,0,0,1,0,0v-5.52A11.36,11.36,0,0,1,709.31,444.13Z"/><circle cx="813.64" cy="329.74" r="26.43" fill="#e46150"/><path fill="#63cc22" d="M825,294.88h5.52a0,0,0,0,1,0,0v5.52a11.36,11.36,0,0,1-11.36,11.36h-5.52a0,0,0,0,1,0,0v-5.52A11.36,11.36,0,0,1,825,294.88Z"/><circle cx="1102.03" cy="526.48" r="26.43" fill="#e46150"/><path fill="#63cc22" d="M1113.39,491.61h5.52a0,0,0,0,1,0,0v5.52a11.36,11.36,0,0,1-11.36,11.36H1102a0,0,0,0,1,0,0V503A11.36,11.36,0,0,1,1113.39,491.61Z"/><circle cx="1099" cy="170.09" r="26.43" fill="#e46150"/><path fill="#63cc22" d="M1110.36,135.23h5.52a0,0,0,0,1,0,0v5.52a11.36,11.36,0,0,1-11.36,11.36H1099a0,0,0,0,1,0,0v-5.52A11.36,11.36,0,0,1,1110.36,135.23Z"/><circle cx="1048.89" cy="320.36" r="26.43" fill="#e46150"/><path fill="#63cc22" d="M1060.25,285.49h5.52a0,0,0,0,1,0,0V291a11.36,11.36,0,0,1-11.36,11.36h-5.52a0,0,0,0,1,0,0v-5.52A11.36,11.36,0,0,1,1060.25,285.49Z"/><path fill="#6b1f1f" d="M965.13,773.55c-6.93,40.61-148.73,16.4-141.8-24.21s44.3-68.09,83.45-61.41S972.07,733,965.13,773.55Z"/><circle cx="883.61" cy="698.18" r="28.73" fill="#6b1f1f"/><circle cx="910.25" cy="666.68" r="28.73" fill="#6b1f1f"/><circle cx="932.19" cy="676.48" r="28.73" fill="#6b1f1f"/><circle cx="947.96" cy="713.73" r="28.73" fill="#6b1f1f"/><circle cx="913.12" cy="720.33" r="28.73" fill="#6b1f1f"/><circle cx="952.4" cy="779.25" r="13.38" fill="#b26c50"/><path fill="#b26c50" d="M889,696h0a64.25,64.25,0,0,1,64.25,64.25v102a0,0,0,0,1,0,0H824.75a0,0,0,0,1,0,0v-102A64.25,64.25,0,0,1,889,696Z" transform="rotate(9.69 888.886 779.053)"/><rect width="39.13" height="17.25" x="774.29" y="923.52" fill="#71aabf" rx="8.62" transform="rotate(44.03 793.868 932.218)"/><rect width="128.51" height="43" x="810.76" y="839.64" fill="#3f3f3f" transform="rotate(9.69 874.858 860.982)"/><rect width="15.64" height="43" x="866.71" y="839.26" fill="#438faa" transform="rotate(9.69 874.41 860.605)"/><rect width="15.64" height="43" x="829.15" y="832.56" fill="#438faa" transform="rotate(9.69 836.83 853.928)"/><path fill="#438faa" d="M804.16,860.58H932.66a0,0,0,0,1,0,0v62.05a16.42,16.42,0,0,1-16.42,16.42H820.58a16.42,16.42,0,0,1-16.42-16.42V860.58A0,0,0,0,1,804.16,860.58Z" transform="rotate(9.69 868.276 899.683)"/><path fill="#6b1f1f" d="M824.28,737.79c-1.79,3.65-3.26,8.5-.63,11.42,2.22,2.47,6.3,1.9,8.92-.2s4.19-5.31,5.9-8.29c6-10.52,14-17.22,24.28-23,4.21-2.38,13-6.53,21-6,10.2.7,14.54,5.82,17.38,8.29a58.65,58.65,0,0,0,18.68,11,.61.61,0,0,0,.67-1,17.58,17.58,0,0,1-4.37-9.45.86.86,0,0,1,1.54-.6c3.85,5.21,13.89,17.76,24.48,25.7,6.56,4.92,15.25,11.54,22,16.12,2.5-8.06.71-17-3.15-24.29s-9.62-13.21-15.48-18.8c-11.3-10.77-23.69-20.94-38.35-25.48A59.42,59.42,0,0,0,861.62,698a66.8,66.8,0,0,0-30.53,36.77"/><path fill="#934b3e" d="M866.76,793.89c3.5.6,9-4.24,11.79-.24s-2.87,13.17-13.68,11.32-14.71-12.79-9.84-15.59S862.53,793.17,866.76,793.89Z"/><ellipse cx="845.74" cy="764.03" fill="#fff" rx="24.93" ry="21.57" transform="matrix(.17 -.99 .99 .17 -49.73 1469.13)"/><ellipse cx="852.15" cy="765.13" fill="#182844" rx="16.18" ry="14.01" transform="rotate(-80.31 852.182 765.131)"/><ellipse cx="862.18" cy="755.43" fill="#fff" rx="2.58" ry="3.66" transform="rotate(-30.38 862.216 755.44)"/><ellipse cx="896.45" cy="772.69" fill="#fff" rx="24.93" ry="21.57" transform="rotate(-80.31 896.484 772.694)"/><ellipse cx="890.04" cy="771.6" fill="#182844" rx="16.18" ry="14.01" transform="rotate(-80.31 890.063 771.599)"/><ellipse cx="900.07" cy="761.9" fill="#fff" rx="2.58" ry="3.66" transform="rotate(-30.38 900.104 761.91)"/><path fill="#934b3e" d="M886.76 733.8a24.92 24.92 0 016.65-.67 30.69 30.69 0 015.81.7 32.61 32.61 0 0110 4 33.5 33.5 0 018.19 7.06 32 32 0 013.3 4.83 25.54 25.54 0 012.47 6.2l-.5.82L918 754.22l-4.62-2.66c-3.08-1.78-6.12-3.63-9.17-5.44s-6.06-3.73-9.06-5.64l-4.49-2.89-4.43-3zM824.77 739.78A25.38 25.38 0 01829 734.6a31.73 31.73 0 014.61-3.61 33.2 33.2 0 0120.73-5 31 31 0 015.75 1.08 25.61 25.61 0 016.13 2.63l.23.94-5.12 1.49-5.15 1.39c-3.44.92-6.89 1.76-10.34 2.64s-6.92 1.65-10.39 2.41l-5.21 1.13-5.24 1z"/><rect width="39.13" height="17.25" x="813.27" y="926" fill="#71aabf" rx="8.62" transform="rotate(63.64 832.845 934.705)"/><path fill="#b26c50" d="M925.9,923.59h7.81a6.71,6.71,0,0,1,6.71,6.71v17.26a10.61,10.61,0,0,1-10.61,10.61h0a10.61,10.61,0,0,1-10.61-10.61V930.3a6.71,6.71,0,0,1,6.71-6.71Z" transform="rotate(-27.08 929.661 940.784)"/><path fill="#b26c50" d="M915,931.7h6.72a1,1,0,0,1,1,1v12a4.32,4.32,0,0,1-4.32,4.32h0a4.32,4.32,0,0,1-4.32-4.32v-12a1,1,0,0,1,1-1Z" transform="rotate(9.69 918.228 940.185)"/><path fill="#b26c50" d="M786,808.21h7.81a6.71,6.71,0,0,1,6.71,6.71v17.26a10.61,10.61,0,0,1-10.61,10.61h0a10.61,10.61,0,0,1-10.61-10.61V814.92a6.71,6.71,0,0,1,6.71-6.71Z" transform="rotate(131.95 789.886 825.475)"/><circle cx="786.16" cy="805.06" r="23.02" fill="#e46150"/><path fill="#63cc22" d="M796.05,774.69h4.8a0,0,0,0,1,0,0v4.8a9.89,9.89,0,0,1-9.89,9.89h-4.8a0,0,0,0,1,0,0v-4.8A9.89,9.89,0,0,1,796.05,774.69Z"/><path fill="#b26c50" d="M797.38,813.27h6.72a1,1,0,0,1,1,1v12a4.32,4.32,0,0,1-4.32,4.32h0a4.32,4.32,0,0,1-4.32-4.32v-12A1,1,0,0,1,797.38,813.27Z" transform="rotate(168.71 800.725 821.934)"/><path fill="#63cc22" d="M925.68,233.74h5.52a0,0,0,0,1,0,0v5.52a11.36,11.36,0,0,1-11.36,11.36h-5.52a0,0,0,0,1,0,0V245.1A11.36,11.36,0,0,1,925.68,233.74Z"/><path fill="#63cc22" d="M893.76,230.05h6.72a13.84,13.84,0,0,1,13.84,13.84v6.72a0,0,0,0,1,0,0H907.6a13.84,13.84,0,0,1-13.84-13.84v-6.72A0,0,0,0,1,893.76,230.05Z" transform="rotate(180 904.04 240.335)"/><path fill="#63cc22" d="M879.43,451.54h5.52a0,0,0,0,1,0,0v5.52a11.36,11.36,0,0,1-11.36,11.36h-5.52a0,0,0,0,1,0,0V462.9A11.36,11.36,0,0,1,879.43,451.54Z"/><path fill="#63cc22" d="M847.51,447.85h6.72a13.84,13.84,0,0,1,13.84,13.84v6.72a0,0,0,0,1,0,0h-6.72a13.84,13.84,0,0,1-13.84-13.84v-6.72A0,0,0,0,1,847.51,447.85Z" transform="rotate(180 857.79 458.135)"/><path fill="#63cc22" d="M1179.88,401.82h5.52a0,0,0,0,1,0,0v5.52A11.36,11.36,0,0,1,1174,418.69h-5.52a0,0,0,0,1,0,0v-5.52A11.36,11.36,0,0,1,1179.88,401.82Z"/><path fill="#63cc22" d="M1148,398.13h6.72A13.84,13.84,0,0,1,1168.52,412v6.72a0,0,0,0,1,0,0h-6.72A13.84,13.84,0,0,1,1148,404.85v-6.72A0,0,0,0,1,1148,398.13Z" transform="rotate(180 1158.24 408.41)"/><circle cx="1365.52" cy="285.49" r="82.74" fill="url(#f)"/><path fill="url(#g)" d="M615.31,940.42h57.11a30.47,30.47,0,0,0-48.06-34,32.82,32.82,0,0,0,.22-3.6,33.71,33.71,0,0,0-47.27-30.85,33.71,33.71,0,1,0-64.77-18.66A33.71,33.71,0,0,0,454,865.61a33.7,33.7,0,0,0-48.22,47,33.71,33.71,0,0,0-29.92,27.82H615.31Z"/><path fill="#75acc9" d="M615.31,940.42h57.11a30.47,30.47,0,0,0-48.06-34,32.82,32.82,0,0,0,.22-3.6,33.62,33.62,0,0,0-9.9-23.86A32.9,32.9,0,0,1,577.09,901a32.88,32.88,0,0,1-47.59,6,33,33,0,0,1-21.81.71,32.9,32.9,0,0,1-54,8,32.91,32.91,0,0,1-21.79,24.68H615.31Z"/></svg>